<?xml version="1.0" encoding="utf-8"?>
<!-- Generator: Adobe Illustrator 26.0.2, SVG Export Plug-In . SVG Version: 6.00 Build 0)  -->
<svg version="1.1" id="Layer_1" xmlns="http://www.w3.org/2000/svg" xmlns:xlink="http://www.w3.org/1999/xlink" x="0px" y="0px"
	 viewBox="0 0 230 70" style="enable-background:new 0 0 230 70;" xml:space="preserve">
<style type="text/css">
	.st0{fill:#42210B;}
	.st1{fill:none;stroke:#000000;stroke-width:7;stroke-miterlimit:10;}
	.st2{fill:url(#SVGID_1_);}
	.st3{font-family:'CalistoMT';}
	.st4{font-size:25.5174px;}
	.st5{font-size:11px;}
</style>
<g>
	<path class="st0" d="M9.95,69L8.82,51.4L7.15,9.28C6.78,8.81,6.47,8.27,6.3,7.69C6.12,7.26,6.03,6.82,6.03,6.37
		c0-0.29,0.04-0.56,0.11-0.83c0.36-2.29,2.34-4.03,4.65-4.03c2.6,0,4.71,2.13,4.71,4.75c0,0.02,0,0.04,0,0.05c0,0.02,0,0.04,0,0.05
		c0,0.04,0,0.07,0,0.11v0.05c0,0.13-0.02,0.25-0.04,0.34c-0.11,0.9-0.48,1.75-1.07,2.46l-1.66,42.05L11.59,69L9.95,69L9.95,69z"/>
	<path class="st1" d="M11.77,40.47"/>
	<polygon class="st0" points="26.36,63.09 26.21,60.22 29.17,60.22 17.73,40.5 22.04,34.34 37.04,60.22 41.86,60.22 42,63.09 	"/>
	
		<linearGradient id="SVGID_1_" gradientUnits="userSpaceOnUse" x1="0.443" y1="32.9858" x2="41.0157" y2="32.9858" gradientTransform="matrix(1 0 0 -1 0 72)">
		<stop  offset="0" style="stop-color:#E8B31A"/>
		<stop  offset="0" style="stop-color:#D9A117"/>
		<stop  offset="0.3198" style="stop-color:#B17A11"/>
		<stop  offset="0.6802" style="stop-color:#F9D249"/>
		<stop  offset="1" style="stop-color:#E8C734"/>
	</linearGradient>
	<path class="st2" d="M19.24,58c-4.4,0-8.7-1.59-12.1-4.46c-3.44-2.91-5.73-6.97-6.44-11.44c-1.68-10.34,5.28-20.11,15.5-21.81
		c0.98-0.16,2-0.25,3.01-0.25c6.23,0,12.04,3.09,15.55,8.28l0.93,1.36l-3.62,0.6l-0.38-0.52c-2.95-4.05-7.5-6.38-12.44-6.38
		c-0.84,0-1.7,0.07-2.54,0.22c-4.08,0.67-7.64,2.91-10.06,6.31s-3.38,7.53-2.7,11.64c1.23,7.59,7.66,13.1,15.27,13.1l0,0
		c0.84,0,1.68-0.07,2.52-0.22c5.23-0.87,9.66-4.41,11.72-9.31h-3.45v-3.2h11.01v3.2h-3.99c-2.22,6.56-7.96,11.49-14.75,12.61
		C21.28,57.91,20.26,58,19.24,58L19.24,58z"/>
	<path class="st0" d="M10,41.63l19.28-26.02c0.68-1.3,0.68-1.72,0.68-2.04c0-0.8-0.25-1.52-0.66-2.13c0.13,0.43,0.2,0.89,0.2,1.34
		c0,2.64-2.13,4.79-4.74,4.79s-4.72-2.15-4.72-4.79c0-0.69,0.14-1.34,0.41-1.97c0.86-2.42,3.08-3.92,5.82-3.92
		c3.63,0,6.6,3,6.6,6.67c0,0.96-0.18,1.82-1.07,3.52l-0.02,0.02l-0.09,0.14L12.33,43.36L10,41.63z"/>
</g>
<text transform="matrix(0.7703 0 0 1 44.4429 37.5361)" class="st0 st3 st4">KANKAVATI GOLD</text>
<text transform="matrix(0.6525 0 0 1 45.4644 51.4434)" class="st0 st3 st5">ELEVATE YOUR STYLE WITH OUR COLLECTION</text>
</svg>
